<?xml version="1.0" standalone="no"?>
<!DOCTYPE svg PUBLIC "-//W3C//DTD SVG 1.1//EN" "http://www.w3.org/Graphics/SVG/1.1/DTD/svg11.dtd">
<!--App : DrStudio-->
<!--Author : Charles A.D. BONDJE DOUE-->
<!--version : 1.0-->
<!--description : File generate by SVGDrawing2DEncoderVisitor-->
<svg width="100" height="100" id="LayerDocument_59199654" viewBox="0 0 100 100" version="1.1" xmlns="http://www.w3.org/2000/svg" xmlns:xlink="http://www.w3.org/1999/xlink">
	<path id="Path_46643806" d="M 93.86343,50 C 93.86343,25.77489 74.22511,6.136574 50,6.136574 25.77489,6.136574 6.136574,25.77489 6.136574,50 6.136574,74.22511 25.77489,93.86343 50,93.86343 74.22511,93.86343 93.86343,74.22511 93.86343,50 zM 98.79549,50 C 98.79549,76.94902 76.94902,98.79549 50,98.79549 23.05098,98.79549 1.20451,76.94902 1.20451,50 1.20451,23.05098 23.05098,1.20451 50,1.20451 76.94902,1.20451 98.79549,23.05098 98.79549,50 zM 80.74316,56.23761 C 80.02326,58.92429 78.95429,61.50502 77.56356,63.91383 L 83.06811,67.09188 C 84.73657,64.20202 86.01903,61.10591 86.88268,57.88269 zM 65.91383,75.56356 C 63.50502,76.95429 60.92429,78.02326 58.23761,78.74316 L 59.88269,84.88268 C 63.10591,84.01903 66.20202,82.73657 69.09188,81.06811 zM 41.76239,78.74316 C 39.07571,78.02326 36.49498,76.95429 34.08617,75.56356 L 30.90812,81.06811 C 33.79798,82.73657 36.89408,84.01902 40.11731,84.88268 zM 22.43644,63.91383 C 21.04571,61.50502 19.97674,58.92429 19.25684,56.23761 L 13.11732,57.88269 C 13.98098,61.10592 15.26343,64.20202 16.93189,67.09188 zM 19.25684,39.76239 C 19.97674,37.07571 21.04571,34.49498 22.43644,32.08617 L 16.93189,28.90812 C 15.26343,31.79798 13.98098,34.89408 13.11732,38.11731 zM 34.08616,20.43644 C 36.49498,19.04571 39.0757,17.97674 41.76238,17.25684 L 40.1173,11.11732 C 36.89407,11.98098 33.79797,13.26343 30.90811,14.9319 zM 58.23759,17.25684 C 60.92427,17.97673 63.505,19.0457 65.91381,20.43643 L 69.09187,14.93188 C 66.202,13.26342 63.10589,11.98097 59.88266,11.11731 zM 77.56355,32.08615 C 78.95428,34.49496 80.02325,37.07569 80.74316,39.76237 L 86.88268,38.11729 C 86.01901,34.89406 84.73656,31.79796 83.0681,28.90809 z" />
</svg>